<svg id="visual" viewBox="0 0 900 600" class="w-screen h-screen" xmlns="http://www.w3.org/2000/svg" xmlns:xlink="http://www.w3.org/1999/xlink" version="1.1">
    <path d="M0 462L90 414L180 398L270 416L360 419L450 426L540 404L630 492L720 457L810 463L900 473L900 601L810 601L720 601L630 601L540 601L450 601L360 601L270 601L180 601L90 601L0 601Z" fill="#9ca9f1"></path>
    <path d="M0 413L90 415L180 439L270 441L360 491L450 433L540 421L630 453L720 488L810 465L900 497L900 601L810 601L720 601L630 601L540 601L450 601L360 601L270 601L180 601L90 601L0 601Z" fill="#8d99df"></path>
    <path d="M0 504L90 469L180 444L270 452L360 474L450 510L540 488L630 516L720 445L810 430L900 512L900 601L810 601L720 601L630 601L540 601L450 601L360 601L270 601L180 601L90 601L0 601Z" fill="#7f89ce"></path>
    <path d="M0 454L90 469L180 503L270 472L360 526L450 481L540 468L630 466L720 503L810 482L900 527L900 601L810 601L720 601L630 601L540 601L450 601L360 601L270 601L180 601L90 601L0 601Z" fill="#7179bd"></path>
    <path d="M0 488L90 537L180 483L270 472L360 535L450 517L540 511L630 500L720 490L810 523L900 498L900 601L810 601L720 601L630 601L540 601L450 601L360 601L270 601L180 601L90 601L0 601Z" fill="#636aac"></path>
    <path d="M0 481L90 499L180 512L270 547L360 533L450 543L540 529L630 541L720 485L810 544L900 528L900 601L810 601L720 601L630 601L540 601L450 601L360 601L270 601L180 601L90 601L0 601Z" fill="#555b9b"></path>
    <path d="M0 526L90 502L180 538L270 535L360 554L450 548L540 536L630 545L720 526L810 516L900 512L900 601L810 601L720 601L630 601L540 601L450 601L360 601L270 601L180 601L90 601L0 601Z" fill="#484c8b"></path>
    <path d="M0 517L90 546L180 525L270 532L360 531L450 517L540 561L630 561L720 559L810 539L900 537L900 601L810 601L720 601L630 601L540 601L450 601L360 601L270 601L180 601L90 601L0 601Z" fill="#3a3e7a"></path>
    <path d="M0 559L90 548L180 549L270 545L360 572L450 560L540 544L630 550L720 542L810 543L900 533L900 601L810 601L720 601L630 601L540 601L450 601L360 601L270 601L180 601L90 601L0 601Z" fill="#2d316b"></path>
    <path d="M0 556L90 558L180 570L270 578L360 575L450 567L540 579L630 559L720 558L810 564L900 555L900 601L810 601L720 601L630 601L540 601L450 601L360 601L270 601L180 601L90 601L0 601Z" fill="#1f245b"></path>
    <path d="M0 586L90 587L180 590L270 582L360 577L450 571L540 576L630 569L720 572L810 589L900 569L900 601L810 601L720 601L630 601L540 601L450 601L360 601L270 601L180 601L90 601L0 601Z" fill="#11174c"></path>
</svg>